<svg xmlns="http://www.w3.org/2000/svg" width="1200" height="630" viewBox="0 0 1200 630">
  <defs>
    <style>text { font-family: 'JetBrains Mono', 'Courier New', monospace; }</style>
    <linearGradient id="topbar-grad" x1="0%" y1="0%" x2="100%" y2="0%">
      <stop offset="0%"   style="stop-color:#040805"/>
      <stop offset="50%"  style="stop-color:#09110a"/>
      <stop offset="100%" style="stop-color:#040805"/>
    </linearGradient>
    <filter id="glow-green">
      <feGaussianBlur stdDeviation="2.5" result="coloredBlur"/>
      <feMerge><feMergeNode in="coloredBlur"/><feMergeNode in="SourceGraphic"/></feMerge>
    </filter>
    <filter id="glow-soft">
      <feGaussianBlur stdDeviation="1.5" result="coloredBlur"/>
      <feMerge><feMergeNode in="coloredBlur"/><feMergeNode in="SourceGraphic"/></feMerge>
    </filter>
  </defs>

  <!-- Background + border -->
  <rect width="1200" height="630" fill="#030604" rx="8"/>
  <rect width="1200" height="630" fill="none" stroke="#163019" stroke-width="1" rx="8"/>

  <!-- ══ TOPBAR ══ -->
  <rect x="0" y="0" width="1200" height="38" fill="url(#topbar-grad)" rx="8"/>
  <rect x="0" y="30" width="1200" height="8" fill="url(#topbar-grad)"/>
  <line x1="0" y1="38" x2="1200" y2="38" stroke="#163019" stroke-width="1"/>
  <circle cx="18" cy="19" r="5" fill="#ff5f57" filter="url(#glow-soft)"/>
  <circle cx="32" cy="19" r="5" fill="#febc2e" filter="url(#glow-soft)"/>
  <circle cx="46" cy="19" r="5" fill="#28c840" filter="url(#glow-soft)"/>
  <text x="600" y="24" text-anchor="middle" font-size="11" font-weight="700" fill="#00ff88" letter-spacing="4" filter="url(#glow-green)">404x9-evil-kit</text>
  <text x="720" y="24" text-anchor="middle" font-size="7" fill="#3d8a56" letter-spacing="2">by @xfraylin</text>
  <rect x="1102" y="12" width="62" height="14" fill="#030804" stroke="#1a3a20" stroke-width="1" rx="2"/>
  <circle cx="1112" cy="19" r="3" fill="#00ff88" filter="url(#glow-soft)"/>
  <text x="1118" y="22" font-size="7" fill="#00ff88" letter-spacing="1">ONLINE</text>
  <text x="1010" y="22" font-size="7" fill="#3d8a56" letter-spacing="1">22:47:03</text>

  <!-- ══ SIDEBAR (x=0..185, y=38..630) ══ -->
  <rect x="0" y="38" width="185" height="592" fill="#060c08"/>
  <line x1="185" y1="38" x2="185" y2="630" stroke="#163019" stroke-width="1"/>

  <!-- brand -->
  <rect x="0" y="38" width="185" height="44" fill="#070f08"/>
  <line x1="0" y1="82" x2="185" y2="82" stroke="#163019" stroke-width="1"/>
  <text x="12" y="57" font-size="9" font-weight="700" fill="#00ff88" letter-spacing="3" filter="url(#glow-soft)">404X9-EVIL-KIT</text>
  <text x="12" y="72" font-size="7" fill="#3d8a56" letter-spacing="2">by @xfraylin</text>

  <!-- categories collapsed -->
  <rect x="0" y="82"  width="185" height="18" fill="#060c08"/><line x1="0" y1="100" x2="185" y2="100" stroke="#0a1209" stroke-width="1"/>
  <text x="10" y="95"  font-size="7" fill="#3d8a56" letter-spacing="3">RECON</text><text x="170" y="95"  font-size="8" fill="#3d8a56" opacity="0.5">›</text>
  <rect x="0" y="100" width="185" height="18" fill="#060c08"/><line x1="0" y1="118" x2="185" y2="118" stroke="#0a1209" stroke-width="1"/>
  <text x="10" y="113" font-size="7" fill="#3d8a56" letter-spacing="3">OSINT</text><text x="170" y="113" font-size="8" fill="#3d8a56" opacity="0.5">›</text>
  <rect x="0" y="118" width="185" height="18" fill="#060c08"/><line x1="0" y1="136" x2="185" y2="136" stroke="#0a1209" stroke-width="1"/>
  <text x="10" y="131" font-size="7" fill="#3d8a56" letter-spacing="3">WEB / INJECT</text><text x="170" y="131" font-size="8" fill="#3d8a56" opacity="0.5">›</text>
  <rect x="0" y="136" width="185" height="18" fill="#060c08"/><line x1="0" y1="154" x2="185" y2="154" stroke="#0a1209" stroke-width="1"/>
  <text x="10" y="149" font-size="7" fill="#3d8a56" letter-spacing="3">CRACKING</text><text x="170" y="149" font-size="8" fill="#3d8a56" opacity="0.5">›</text>
  <rect x="0" y="154" width="185" height="18" fill="#060c08"/><line x1="0" y1="172" x2="185" y2="172" stroke="#0a1209" stroke-width="1"/>
  <text x="10" y="167" font-size="7" fill="#3d8a56" letter-spacing="3">EXPLOIT</text><text x="170" y="167" font-size="8" fill="#3d8a56" opacity="0.5">›</text>

  <!-- ACTIVE DIRECTORY — expanded -->
  <rect x="0" y="172" width="185" height="20" fill="#060d07"/>
  <line x1="0" y1="192" x2="185" y2="192" stroke="#0d1a0e" stroke-width="1"/>
  <text x="10" y="186" font-size="7" fill="#00ff88" letter-spacing="2" font-weight="700">ACTIVE DIRECTORY</text>
  <text x="170" y="186" font-size="8" fill="#00ff88" opacity="0.7">↓</text>

  <!-- AD items -->
  <rect x="0" y="192" width="185" height="15" fill="transparent"/>
  <circle cx="18" cy="199" r="2" fill="#163320"/><text x="28" y="203" font-size="7" fill="#3d8a56">ENUMERATION</text>
  <rect x="0" y="207" width="185" height="15" fill="transparent"/>
  <circle cx="18" cy="214" r="2" fill="#163320"/><text x="28" y="218" font-size="7" fill="#3d8a56">SMB ACCESS</text>
  <rect x="0" y="222" width="185" height="15" fill="transparent"/>
  <circle cx="18" cy="229" r="2" fill="#163320"/><text x="28" y="233" font-size="7" fill="#3d8a56">KERBEROS</text>
  <rect x="0" y="237" width="185" height="15" fill="transparent"/>
  <circle cx="18" cy="244" r="2" fill="#163320"/><text x="28" y="248" font-size="7" fill="#3d8a56">TICKETS</text>
  <rect x="0" y="252" width="185" height="15" fill="transparent"/>
  <circle cx="18" cy="259" r="2" fill="#163320"/><text x="28" y="263" font-size="7" fill="#3d8a56">EXECUTION</text>
  <rect x="0" y="267" width="185" height="15" fill="transparent"/>
  <circle cx="18" cy="274" r="2" fill="#163320"/><text x="28" y="278" font-size="7" fill="#3d8a56">CREDENTIALS</text>
  <rect x="0" y="282" width="185" height="15" fill="transparent"/>
  <circle cx="18" cy="289" r="2" fill="#163320"/><text x="28" y="293" font-size="7" fill="#3d8a56">DPAPI</text>
  <rect x="0" y="297" width="185" height="15" fill="transparent"/>
  <circle cx="18" cy="304" r="2" fill="#163320"/><text x="28" y="308" font-size="7" fill="#3d8a56">ADCS</text>
  <rect x="0" y="312" width="185" height="15" fill="transparent"/>
  <circle cx="18" cy="319" r="2" fill="#163320"/><text x="28" y="323" font-size="7" fill="#3d8a56">ACL ABUSE</text>
  <rect x="0" y="327" width="185" height="15" fill="transparent"/>
  <circle cx="18" cy="334" r="2" fill="#163320"/><text x="28" y="338" font-size="7" fill="#3d8a56">COERCION</text>
  <rect x="0" y="342" width="185" height="15" fill="transparent"/>
  <circle cx="18" cy="349" r="2" fill="#163320"/><text x="28" y="353" font-size="7" fill="#3d8a56">BLOODHOUND</text>
  <rect x="0" y="357" width="185" height="15" fill="transparent"/>
  <circle cx="18" cy="364" r="2" fill="#163320"/><text x="28" y="368" font-size="7" fill="#3d8a56">DELEGATION</text>
  <rect x="0" y="372" width="185" height="15" fill="transparent"/>
  <circle cx="18" cy="379" r="2" fill="#163320"/><text x="28" y="383" font-size="7" fill="#3d8a56">MITM</text>

  <!-- GPO ABUSE — ACTIVE item -->
  <rect x="0" y="387" width="185" height="18" fill="#0d1e0f"/>
  <rect x="0" y="387" width="2"   height="18" fill="#00ff88"/>
  <circle cx="18" cy="396" r="2.5" fill="#00ff88" filter="url(#glow-soft)"/>
  <text x="28" y="400" font-size="7" fill="#00ff88" font-weight="700" filter="url(#glow-soft)">GPO ABUSE</text>
  <rect x="112" y="389" width="28" height="11" fill="#003310" stroke="#00ff88" stroke-width="0.5" rx="2"/>
  <text x="114" y="397" font-size="6" fill="#00ff88" font-weight="700">NEW</text>

  <line x1="0" y1="406" x2="185" y2="406" stroke="#0d1a0e" stroke-width="1"/>

  <!-- remaining categories -->
  <rect x="0" y="406" width="185" height="18" fill="#060c08"/><line x1="0" y1="424" x2="185" y2="424" stroke="#0a1209" stroke-width="1"/>
  <text x="10" y="419" font-size="7" fill="#3d8a56" letter-spacing="3">WIRELESS</text><text x="170" y="419" font-size="8" fill="#3d8a56" opacity="0.5">›</text>
  <rect x="0" y="424" width="185" height="18" fill="#060c08"/><line x1="0" y1="442" x2="185" y2="442" stroke="#0a1209" stroke-width="1"/>
  <text x="10" y="437" font-size="7" fill="#3d8a56" letter-spacing="3">SPYWARE / C2</text><text x="170" y="437" font-size="8" fill="#3d8a56" opacity="0.5">›</text>
  <rect x="0" y="442" width="185" height="18" fill="#060c08"/><line x1="0" y1="460" x2="185" y2="460" stroke="#0a1209" stroke-width="1"/>
  <text x="10" y="455" font-size="7" fill="#3d8a56" letter-spacing="3">PHISHING</text><text x="170" y="455" font-size="8" fill="#3d8a56" opacity="0.5">›</text>
  <rect x="0" y="460" width="185" height="18" fill="#060c08"/><line x1="0" y1="478" x2="185" y2="478" stroke="#0a1209" stroke-width="1"/>
  <text x="10" y="473" font-size="7" fill="#3d8a56" letter-spacing="3">UTILS</text><text x="170" y="473" font-size="8" fill="#3d8a56" opacity="0.5">›</text>
  <rect x="0" y="478" width="185" height="18" fill="#060c08"/><line x1="0" y1="496" x2="185" y2="496" stroke="#0a1209" stroke-width="1"/>
  <text x="10" y="491" font-size="7" fill="#3d8a56" letter-spacing="3">SYSTEM</text><text x="170" y="491" font-size="8" fill="#3d8a56" opacity="0.5">›</text>

  <!-- ══ MAIN PANEL (x=185..970, y=38..630) ══ -->
  <rect x="185" y="38" width="785" height="592" fill="#050a06"/>

  <!-- panel title -->
  <text x="205" y="64" font-size="14" font-weight="700" fill="#c8ffdc" letter-spacing="1">GPO ABUSE</text>
  <text x="308" y="64" font-size="9" fill="#3d8a56">— bloodyAD · dacledit · ldapsearch · SharpGPOAbuse · Grouper2</text>

  <!-- t-bar -->
  <rect x="205" y="71" width="210" height="15" fill="#030604" stroke="#163019" stroke-width="1" rx="2"/>
  <circle cx="214" cy="78.5" r="3" fill="#00ff88" filter="url(#glow-soft)"/>
  <text x="222" y="83" font-size="7" fill="#3d8a56" letter-spacing="1">bloodyAD</text>
  <rect x="260" y="73" width="44" height="10" fill="#061a0a" stroke="#1a4020" stroke-width="0.5" rx="1"/>
  <text x="263" y="81" font-size="6" fill="#00ff88">✓ installed</text>

  <!-- inputs row 1 -->
  <rect x="205" y="92" width="230" height="26" fill="#030604" stroke="#163019" stroke-width="1" rx="2"/>
  <text x="212" y="102" font-size="6" fill="#3d8a56" letter-spacing="1">DC IP</text>
  <text x="212" y="113" font-size="9" fill="#7fffc0">192.168.1.10</text>
  <rect x="442" y="92" width="200" height="26" fill="#030604" stroke="#163019" stroke-width="1" rx="2"/>
  <text x="449" y="102" font-size="6" fill="#3d8a56" letter-spacing="1">DOMINIO</text>
  <text x="449" y="113" font-size="9" fill="#7fffc0">corp.local</text>

  <!-- inputs row 2 -->
  <rect x="205" y="123" width="190" height="26" fill="#030604" stroke="#163019" stroke-width="1" rx="2"/>
  <text x="212" y="133" font-size="6" fill="#3d8a56" letter-spacing="1">USUARIO</text>
  <text x="212" y="144" font-size="9" fill="#7fffc0">svc_backup</text>
  <rect x="402" y="123" width="240" height="26" fill="#030604" stroke="#163019" stroke-width="1" rx="2"/>
  <text x="409" y="133" font-size="6" fill="#3d8a56" letter-spacing="1">PASSWORD / HASH (LM:NT)</text>
  <text x="409" y="144" font-size="9" fill="#7fffc0">aad3b435b51404eeaad3b435b514:••••••••</text>

  <!-- tabs -->
  <rect x="205" y="156" width="88"  height="22" fill="#030604" stroke="#163019" stroke-width="1" rx="2"/>
  <text x="215" y="171" font-size="8" fill="#3d8a56">ENUM GPO</text>
  <!-- FIND ABUSE active -->
  <rect x="294" y="156" width="100" height="22" fill="#0d1e0f" stroke="#2a5030" stroke-width="1" rx="2"/>
  <text x="304" y="171" font-size="8" fill="#00ff88" font-weight="700">FIND ABUSE</text>
  <rect x="395" y="156" width="116" height="22" fill="#030604" stroke="#163019" stroke-width="1" rx="2"/>
  <text x="405" y="171" font-size="8" fill="#3d8a56">FIND MACHINES</text>
  <rect x="512" y="156" width="68"  height="22" fill="#030604" stroke="#163019" stroke-width="1" rx="2"/>
  <text x="522" y="171" font-size="8" fill="#3d8a56">ABUSE</text>
  <rect x="581" y="156" width="90"  height="22" fill="#030604" stroke="#163019" stroke-width="1" rx="2"/>
  <text x="591" y="171" font-size="8" fill="#3d8a56">WIN TOOLS</text>

  <!-- FIND ABUSE tab content -->
  <rect x="205" y="184" width="310" height="22" fill="#030604" stroke="#163019" stroke-width="1" rx="2"/>
  <text x="212" y="194" font-size="6" fill="#3d8a56" letter-spacing="1">HERRAMIENTA</text>
  <text x="212" y="201" font-size="8" fill="#7fffc0">bloodyAD — get writable --otype GPO</text>

  <rect x="205" y="211" width="540" height="34" fill="#050d10" stroke="#0a2030" stroke-width="1" rx="2"/>
  <text x="213" y="223" font-size="7" fill="#3d8a56">Detecta: WRITE · WRITE_DACL · WRITE_OWNER · GenericAll · GenericWrite sobre GPOs.</text>
  <text x="213" y="237" font-size="7" fill="#3d8a56">Resultado → copia GUID → FIND MACHINES (scope) → ABUSE tab (SharpGPOAbuse)</text>

  <!-- cmd preview -->
  <rect x="205" y="251" width="740" height="22" fill="#020302" stroke="#163019" stroke-width="1" rx="2"/>
  <text x="213" y="261" font-size="6" fill="#3d8a56" letter-spacing="1">CMD</text>
  <text x="233" y="267" font-size="7.5" fill="#00d8ff">bloodyAD --host 192.168.1.10 -d corp.local -u svc_backup -p :8846f7eaee8fb117ad06bdd830b7586c get writable --otype GPO</text>

  <!-- buttons -->
  <rect x="205" y="279" width="110" height="20" fill="#030f05" stroke="#1a4a22" stroke-width="1" rx="2"/>
  <text x="228" y="293" font-size="8" fill="#00ff88" font-weight="700" filter="url(#glow-soft)">▶ EJECUTAR</text>
  <rect x="321" y="279" width="65"  height="20" fill="#0a0805" stroke="#2a1a08" stroke-width="1" rx="2"/>
  <text x="333" y="293" font-size="8" fill="#ff4f4f" letter-spacing="1">■ STOP</text>
  <rect x="392" y="279" width="50"  height="20" fill="#030604" stroke="#163019" stroke-width="1" rx="2"/>
  <text x="405" y="293" font-size="8" fill="#3d8a56">COPY</text>

  <!-- output area -->
  <rect x="205" y="305" width="750" height="318" fill="#020302" stroke="#163019" stroke-width="1" rx="3"/>
  <rect x="205" y="305" width="750" height="22"  fill="#030604" rx="3"/>
  <rect x="205" y="315" width="750" height="12"  fill="#030604"/>
  <line x1="205" y1="327" x2="955" y2="327" stroke="#163019" stroke-width="1"/>
  <text x="215" y="320" font-size="7" fill="#3d8a56" letter-spacing="2">OUTPUT</text>
  <rect x="900" y="308" width="46" height="14" fill="#0a1209" stroke="#163019" stroke-width="1" rx="1"/>
  <text x="908" y="318" font-size="7" fill="#3d8a56">CLEAR</text>

  <!-- output content -->
  <text x="215" y="343" font-size="7.5" fill="#3d8a56">[*] Connecting to LDAP: 192.168.1.10</text>
  <text x="215" y="356" font-size="7.5" fill="#3d8a56">[*] Authenticated as svc_backup@corp.local  (NTLM)</text>
  <line x1="215" y1="362" x2="940" y2="362" stroke="#163019" stroke-width="1" stroke-dasharray="3,5"/>

  <!-- finding 1 -->
  <text x="215" y="377" font-size="7.5" fill="#00ff88" filter="url(#glow-soft)">[+] GPO: Default Domain Policy</text>
  <rect x="470" y="367" width="72" height="13" fill="#1a0505" stroke="#3a1010" stroke-width="1" rx="2"/>
  <text x="476" y="377" font-size="7" fill="#ff4f4f" font-weight="700">GenericAll</text>
  <rect x="548" y="367" width="38" height="13" fill="#1a0505" stroke="#4a1a10" stroke-width="1" rx="2"/>
  <text x="553" y="377" font-size="7" fill="#ff6f3f" font-weight="700">HIGH</text>
  <text x="225" y="390" font-size="7.5" fill="#3d8a56">GUID: {31B2F340-016D-11D2-945F-00C04FB984F9}</text>
  <text x="225" y="403" font-size="7.5" fill="#3d8a56">Path: \\corp.local\SysVol\corp.local\Policies\{31B2F340...}</text>
  <text x="225" y="416" font-size="7.5" fill="#3d8a56">Linked: OU=Workstations,DC=corp,DC=local</text>
  <rect x="416" y="408" width="80" height="12" fill="#050a18" stroke="#1a2a40" stroke-width="1" rx="2"/>
  <text x="421" y="417" font-size="6.5" fill="#6090d0">47 computers</text>
  <line x1="215" y1="422" x2="940" y2="422" stroke="#163019" stroke-width="1" stroke-dasharray="3,5"/>

  <!-- finding 2 -->
  <text x="215" y="436" font-size="7.5" fill="#00ff88" filter="url(#glow-soft)">[+] GPO: Workstation Baseline</text>
  <rect x="447" y="426" width="76" height="13" fill="#0a1205" stroke="#2a3010" stroke-width="1" rx="2"/>
  <text x="451" y="436" font-size="7" fill="#c0d840" font-weight="700">WRITE_DACL</text>
  <rect x="529" y="426" width="54" height="13" fill="#0a0f05" stroke="#2a3010" stroke-width="1" rx="2"/>
  <text x="533" y="436" font-size="7" fill="#a0b830" font-weight="700">MEDIUM</text>
  <text x="225" y="449" font-size="7.5" fill="#3d8a56">GUID: {6AC1786C-016F-11D2-945F-00C04FB984F9}</text>
  <text x="225" y="462" font-size="7.5" fill="#3d8a56">Linked: OU=IT,DC=corp,DC=local</text>
  <rect x="350" y="454" width="80" height="12" fill="#050a18" stroke="#1a2a40" stroke-width="1" rx="2"/>
  <text x="355" y="463" font-size="6.5" fill="#6090d0">12 computers</text>
  <line x1="215" y1="470" x2="940" y2="470" stroke="#163019" stroke-width="1" stroke-dasharray="3,5"/>

  <text x="215" y="484" font-size="7.5" fill="#3d8a56">[*] Scan complete — <tspan fill="#c8ffdc" font-weight="700">2 writable GPO(s)</tspan> found  [1.43s]</text>
  <text x="215" y="496" font-size="7" fill="#2d6a3a">[exit: 0]</text>

  <!-- abuse alert -->
  <rect x="215" y="504" width="730" height="34" fill="#0a1a0a" stroke="#1a4a1a" stroke-width="1" rx="3"/>
  <text x="226" y="518" font-size="8" fill="#4ecf4e" font-weight="700">⚠  GPO abuse path detected</text>
  <text x="390" y="518" font-size="8" fill="#3d8a56">— writable GPO linked to workstations. Proceed to ABUSE tab.</text>
  <text x="226" y="531" font-size="8" fill="#3d8a56">Use FIND MACHINES to resolve scope (GUID → OUs → computers + risk scoring).</text>

  <!-- cursor -->
  <rect x="215" y="550" width="6" height="12" fill="#00ff88" opacity="0.8" filter="url(#glow-soft)"/>

  <!-- ══ RIGHT PANEL (x=970..1200, y=38..630) ══ -->
  <rect x="970" y="38" width="230" height="592" fill="#040805"/>
  <line x1="970" y1="38" x2="970" y2="630" stroke="#163019" stroke-width="1"/>
  <rect x="970" y="38" width="230" height="24" fill="#060d08"/>
  <line x1="970" y1="62" x2="1200" y2="62" stroke="#163019" stroke-width="1"/>
  <text x="982" y="54" font-size="7" fill="#3d8a56" letter-spacing="2">FEATURES</text>

  <!-- stats 2×2 -->
  <rect x="982" y="70"  width="97" height="48" fill="#030604" stroke="#163019" stroke-width="1" rx="3"/>
  <text x="1030" y="95"  text-anchor="middle" font-size="22" font-weight="700" fill="#00ff88" filter="url(#glow-soft)">14</text>
  <text x="1030" y="108" text-anchor="middle" font-size="6" fill="#3d8a56" letter-spacing="1">AD PANELS</text>

  <rect x="1085" y="70"  width="97" height="48" fill="#030604" stroke="#163019" stroke-width="1" rx="3"/>
  <text x="1133" y="93"  text-anchor="middle" font-size="18" font-weight="700" fill="#00ff88" filter="url(#glow-soft)">50+</text>
  <text x="1133" y="108" text-anchor="middle" font-size="6" fill="#3d8a56" letter-spacing="1">TOTAL TOOLS</text>

  <rect x="982" y="124" width="97" height="48" fill="#030604" stroke="#163019" stroke-width="1" rx="3"/>
  <text x="1030" y="149" text-anchor="middle" font-size="22" font-weight="700" fill="#00ff88" filter="url(#glow-soft)">24</text>
  <text x="1030" y="162" text-anchor="middle" font-size="6" fill="#3d8a56" letter-spacing="1">PHISH TMPLS</text>

  <rect x="1085" y="124" width="97" height="48" fill="#030604" stroke="#163019" stroke-width="1" rx="3"/>
  <text x="1133" y="146" text-anchor="middle" font-size="10" font-weight="700" fill="#00ff88" filter="url(#glow-soft)">AUTO</text>
  <text x="1133" y="158" text-anchor="middle" font-size="6" fill="#3d8a56" letter-spacing="1">REPORTING</text>
  <text x="1133" y="168" text-anchor="middle" font-size="6" fill="#3d8a56">PDF·WORD·JSON</text>

  <line x1="982" y1="183" x2="1182" y2="183" stroke="#163019" stroke-width="1"/>

  <!-- feature list -->
  <circle cx="990" cy="198" r="3" fill="#00ff88" filter="url(#glow-soft)"/>
  <text x="1000" y="202" font-size="8" font-weight="700" fill="#c8ffdc">GPO Abuse chain</text>
  <rect x="1114" y="191" width="28" height="11" fill="#003310" stroke="#00ff88" stroke-width="0.5" rx="2"/>
  <text x="1116" y="199" font-size="6" fill="#00ff88" font-weight="700">NEW</text>
  <text x="1000" y="213" font-size="6.5" fill="#3d8a56">Enum→detect→exploit GPOs</text>

  <circle cx="990" cy="228" r="3" fill="#00ff88" filter="url(#glow-soft)"/>
  <text x="1000" y="232" font-size="8" font-weight="700" fill="#c8ffdc">DPAPI extraction</text>
  <text x="1000" y="243" font-size="6.5" fill="#3d8a56">masterkeys·browser·wifi·certs</text>

  <circle cx="990" cy="258" r="3" fill="#00ff88" filter="url(#glow-soft)"/>
  <text x="1000" y="262" font-size="8" font-weight="700" fill="#c8ffdc">Auto reporting</text>
  <text x="1000" y="273" font-size="6.5" fill="#3d8a56">PDF · Word · JSON per run</text>

  <circle cx="990" cy="288" r="3" fill="#00ff88" filter="url(#glow-soft)"/>
  <text x="1000" y="292" font-size="8" font-weight="700" fill="#c8ffdc">ADCS ESC1–ESC9</text>
  <text x="1000" y="303" font-size="6.5" fill="#3d8a56">certipy parsed interactive view</text>

  <circle cx="990" cy="318" r="3" fill="#00ff88" filter="url(#glow-soft)"/>
  <text x="1000" y="322" font-size="8" font-weight="700" fill="#c8ffdc">MSSQL console</text>
  <text x="1000" y="333" font-size="6.5" fill="#3d8a56">full auto + cross-DB search</text>

  <circle cx="990" cy="348" r="3" fill="#00ff88" filter="url(#glow-soft)"/>
  <text x="1000" y="352" font-size="8" font-weight="700" fill="#c8ffdc">Built-in C2 server</text>
  <text x="1000" y="363" font-size="6.5" fill="#3d8a56">beacon + session console</text>

  <circle cx="990" cy="378" r="3" fill="#00ff88" filter="url(#glow-soft)"/>
  <text x="1000" y="382" font-size="8" font-weight="700" fill="#c8ffdc">Phishing platform</text>
  <text x="1000" y="393" font-size="6.5" fill="#3d8a56">deploy · Telegram · APK builder</text>

  <circle cx="990" cy="408" r="3" fill="#00ff88" filter="url(#glow-soft)"/>
  <text x="1000" y="412" font-size="8" font-weight="700" fill="#c8ffdc">Live SSE streaming</text>
  <text x="1000" y="423" font-size="6.5" fill="#3d8a56">output as-it-happens</text>

  <circle cx="990" cy="438" r="3" fill="#00ff88" filter="url(#glow-soft)"/>
  <text x="1000" y="442" font-size="8" font-weight="700" fill="#c8ffdc">Zero endpoint install</text>
  <text x="1000" y="453" font-size="6.5" fill="#3d8a56">all tools run from Linux attacker</text>

  <line x1="982" y1="465" x2="1182" y2="465" stroke="#163019" stroke-width="1"/>

  <text x="982" y="478" font-size="6.5" fill="#3d8a56" letter-spacing="1">RUNS ON</text>
  <text x="982" y="490" font-size="7" fill="#7fffc0">Kali · Parrot · Ubuntu · Debian</text>

  <line x1="982" y1="500" x2="1182" y2="500" stroke="#163019" stroke-width="1"/>

  <text x="982" y="513" font-size="6.5" fill="#3d8a56" letter-spacing="1">INSTALL</text>
  <rect x="982" y="518" width="200" height="26" fill="#020302" stroke="#163019" stroke-width="1" rx="2"/>
  <text x="988" y="529" font-size="5.5" fill="#3d8a56">sudo bash -c \</text>
  <text x="988" y="539" font-size="5.5" fill="#00d8ff">"$(curl -fsSL .../install.sh)"</text>

  <text x="982" y="558" font-size="6.5" fill="#3d8a56" letter-spacing="1">GITHUB</text>
  <text x="982" y="570" font-size="7" fill="#00d8ff">github.com/xFraylin/</text>
  <text x="982" y="582" font-size="7" fill="#00d8ff">404x9-evil-kit</text>

  <text x="982" y="602" font-size="5.5" fill="#1e3a22">For authorized pentesting only.</text>
  <text x="982" y="613" font-size="5.5" fill="#1e3a22">Labs · CTF · Explicit permission.</text>
</svg>
